<?xml version="1.0" standalone="no"?>
<!DOCTYPE svg PUBLIC "-//W3C//DTD SVG 20010904//EN"
 "http://www.w3.org/TR/2001/REC-SVG-20010904/DTD/svg10.dtd">
<svg version="1.0" xmlns="http://www.w3.org/2000/svg"
 width="100.000000pt" height="100.000000pt" viewBox="0 0 100.000000 100.000000"
 preserveAspectRatio="xMidYMid meet">

<g transform="translate(0.000000,100.000000) scale(0.100000,-0.100000)"
fill="#000000" stroke="none">
<path d="M204 761 c-17 -10 -41 -32 -53 -47 -13 -16 -46 -54 -74 -84 -74 -78
-76 -84 -77 -187 0 -84 2 -93 22 -107 12 -9 35 -16 50 -16 22 0 31 -7 43 -35
18 -44 71 -70 125 -61 37 6 90 54 90 81 0 13 26 15 165 15 l165 0 15 -35 c36
-88 180 -80 216 12 6 17 17 23 39 23 52 0 70 29 70 115 0 80 -16 127 -48 144
-9 5 -53 15 -97 21 -44 7 -89 16 -100 20 -11 4 -40 37 -64 73 -25 36 -55 70
-68 76 -14 7 -98 11 -206 11 -161 0 -186 -2 -213 -19z m216 -80 l0 -60 -147
-3 c-82 -2 -150 -2 -152 -1 -1 1 24 29 56 62 l59 61 92 0 92 0 0 -59z m208 29
c15 -16 35 -43 45 -60 l18 -30 -115 0 -116 0 0 60 0 60 71 0 c65 0 72 -2 97
-30z m-353 -315 c50 -49 15 -135 -55 -135 -41 0 -80 39 -80 80 0 41 39 80 80
80 19 0 40 -9 55 -25z m560 0 c50 -49 15 -135 -55 -135 -41 0 -80 39 -80 80 0
41 39 80 80 80 19 0 40 -9 55 -25z"/>
</g>
</svg>
